# xmcd
#
# Track frame offsets:
#	150
#	51811
#	63712
#	72835
#	82544
#	96972
#	126989
#	145154
#	169698
#	179407
#	190827
#	203084
#	214998
#	227417
#	239684
#
# Disc length: 3377 seconds
#
# Revision: 0
# Processed by: cddbd v1.5.2PL0 Copyright (c) Steve Scherf et al.
# Submitted via: dBpowerAMP V4.0
#
DISCID=d70d2f0f
DTITLE=Various Artist - Blues - Definitive Collection CD4 White Blues and Beyond
DYEAR=1900
DGENRE=Blues
TTITLE0=The Jimi Hendrix Experience - Red House
TTITLE1=Jeff Beck and All Stars - Steelin'
TTITLE2=Canned Heat - Rollin' and Tumblin'
TTITLE3=Eric Clapton Jimmy Page - Tribute to Elmore
TTITLE4=Rod Stewart - So Much to Say
TTITLE5=The Yardbirds - Smokestack Lightning
TTITLE6=Steve Marriott - She Moves Me Man
TTITLE7=Eric Bell - Things I Used to Do
TTITLE8=Buddy Guy - Money
TTITLE9=Ike Turner - Troubles and Heartaches
TTITLE10=Elmore James - The Sky Is Crying
TTITLE11=B.B. King - Paying the Cost to Be the Boss
TTITLE12=Sonny Boy Williamson II - Ninety Nine
TTITLE13=John Lee Hooker - Crying All Night Long
TTITLE14=Joe Liggins - Pink Champagne
EXTD=
EXTT0=
EXTT1=
EXTT2=
EXTT3=
EXTT4=
EXTT5=
EXTT6=
EXTT7=
EXTT8=
EXTT9=
EXTT10=
EXTT11=
EXTT12=
EXTT13=
EXTT14=
PLAYORDER=
